<?xml version="1.0" encoding="utf-8"?>
<!-- Generator: Adobe Illustrator 21.0.2, SVG Export Plug-In . SVG Version: 6.00 Build 0)  -->
<svg version="1.1" id="Capa_1" xmlns="http://www.w3.org/2000/svg" xmlns:xlink="http://www.w3.org/1999/xlink" x="0px" y="0px"
	 viewBox="0 0 250 250" style="enable-background:new 0 0 250 250;" xml:space="preserve">
<style type="text/css">
	.st0{fill:#FFFFFF;}
	.st1{fill:none;stroke:#FFFFFF;stroke-width:2.623;stroke-miterlimit:10;}
	.st2{fill:none;stroke:#FFFFFF;stroke-width:1.3115;stroke-miterlimit:10;}
	.st3{fill:none;}
	.st4{clip-path:url(#SVGID_2_);fill-rule:evenodd;clip-rule:evenodd;fill:#FFFFFF;}
</style>
<g>
	<circle class="st0" cx="125" cy="209.4" r="4.7"/>
	<path class="st0" d="M201.9,67.7l-75-32.8c-1.2-0.5-2.6-0.5-3.8,0c-46,20.1-74.9,32.8-75,32.8c0,0-2.8,1.1-2.8,4.3V101
		c-5.5,1.9-9.4,7.1-9.4,13.3V133c0,2.6,2.1,4.7,4.7,4.7h18.8c2.6,0,4.7-2.1,4.7-4.7v-18.8c0-6.1-3.9-11.3-9.4-13.3V79.2l28.1,12.3
		v32.1c0,1.9,1.1,3.5,2.8,4.3c0.9,0.4,22.2,9.8,39.4,9.8s38.5-9.4,39.4-9.8c1.7-0.8,2.8-2.4,2.8-4.3V91.5l34.7-15.2
		c1.7-0.7,2.8-2.4,2.8-4.3C204.7,70.2,203.6,68.5,201.9,67.7L201.9,67.7z M54.7,128.3h-9.4v-14.1c0-2.6,2.1-4.7,4.7-4.7
		s4.7,2.1,4.7,4.7V128.3z M157.8,120.5c-6.1,2.4-21,7.8-32.8,7.8c-11.8,0-26.7-5.4-32.8-7.8V95.6l30.9,13.5c1.2,0.5,2.6,0.5,3.8,0
		l30.9-13.5V120.5z M125,99.7C116,95.8,70.7,76,61.7,72L125,44.3L188.3,72C180.1,75.6,129.8,97.6,125,99.7L125,99.7z"/>
	<path class="st0" d="M221.6,100.2h-40.3c-2.6,0-4.7,2.1-4.7,4.7s2.1,4.7,4.7,4.7h40.3c2.6,0,4.7-2.1,4.7-4.7
		S224.2,100.2,221.6,100.2z"/>
	<path class="st0" d="M221.6,118.9h-40.3c-2.6,0-4.7,2.1-4.7,4.7c0,2.6,2.1,4.7,4.7,4.7h40.3c2.6,0,4.7-2.1,4.7-4.7
		S224.2,118.9,221.6,118.9z"/>
	<circle class="st0" cx="125" cy="9.7" r="4.7"/>
	<path class="st0" d="M240.3,5h-94.2c-2.6,0-4.7,2.1-4.7,4.7s2.1,4.7,4.7,4.7h89.5v143.4H14.4V14.4h89.5c2.6,0,4.7-2.1,4.7-4.7
		S106.5,5,103.9,5H9.7C7.1,5,5,7.1,5,9.7v180.9c0,2.6,2.1,4.7,4.7,4.7h90.9L93,235.6H78.1c-2.6,0-4.7,2.1-4.7,4.7s2.1,4.7,4.7,4.7
		h93.8c2.6,0,4.7-2.1,4.7-4.7s-2.1-4.7-4.7-4.7H157l-7.6-40.3h90.9c2.6,0,4.7-2.1,4.7-4.7V9.7C245,7.1,242.9,5,240.3,5z
		 M102.5,235.6l7.6-40.3h29.7l7.6,40.3H102.5z M235.6,185.9c-5,0-220.7,0-221.2,0v-18.8h221.2V185.9z"/>
</g>
</svg>
