<?xml version="1.0" encoding="utf-8"?>
<!-- Generator: Adobe Illustrator 21.0.2, SVG Export Plug-In . SVG Version: 6.00 Build 0)  -->
<svg version="1.1" id="Capa_1" xmlns="http://www.w3.org/2000/svg" xmlns:xlink="http://www.w3.org/1999/xlink" x="0px" y="0px"
	 viewBox="0 0 250 250" style="enable-background:new 0 0 250 250;" xml:space="preserve">
<style type="text/css">
	.st0{fill:#FFFFFF;}
	.st1{fill:none;stroke:#FFFFFF;stroke-width:2.623;stroke-miterlimit:10;}
	.st2{fill:none;stroke:#FFFFFF;stroke-width:1.3115;stroke-miterlimit:10;}
	.st3{fill:none;}
	.st4{clip-path:url(#SVGID_2_);fill-rule:evenodd;clip-rule:evenodd;fill:#FFFFFF;}
</style>
<g>
	<path class="st0" d="M125,51.5c-6.4,0-11.6,5.2-11.6,11.6c0,6.4,5.2,11.6,11.6,11.6c6.4,0,11.6-5.2,11.6-11.6S131.4,51.5,125,51.5z
		 M125,66.9c-2.1,0-3.9-1.7-3.9-3.9s1.7-3.9,3.9-3.9c2.1,0,3.9,1.7,3.9,3.9S127.1,66.9,125,66.9z"/>
	<path class="st0" d="M109.5,152.1h7.7v7.7h-7.7V152.1z"/>
	<path class="st0" d="M86.3,152.1H94v7.7h-7.7V152.1z"/>
	<path class="st0" d="M132.7,152.1h7.7v7.7h-7.7V152.1z"/>
	<path class="st0" d="M156,152.1h7.7v7.7H156V152.1z"/>
	<path class="st0" d="M225.6,20.5h-61.3C154,10.9,140.2,5,125,5s-29,5.9-39.3,15.5H24.4C13.7,20.5,5,29.2,5,39.8v147.1
		c0,10.7,8.7,19.4,19.4,19.4H94v5.7c0,1.7-1.2,3.3-2.9,3.7l-25.7,7c-8.3,2.3-14.1,9.8-14.1,18.4v3.9h147.1v-3.9
		c0-8.6-5.8-16.1-14.1-18.4l-25.7-7c-1.7-0.5-2.9-2-2.9-3.7v-5.7h69.7c10.7,0,19.4-8.7,19.4-19.4V39.8
		C245,29.2,236.3,20.5,225.6,20.5L225.6,20.5z M175.3,63.1c0,1.3-0.1,2.6-0.2,3.9h-23.3c0.2-1.3,0.3-2.6,0.3-3.9
		c0-14.9-12.2-27.1-27.1-27.1c-1.3,0-2.6,0.1-3.9,0.3V12.9c1.3-0.1,2.6-0.2,3.9-0.2C152.7,12.7,175.3,35.3,175.3,63.1z M149.4,74.7
		h24.5c-1.8,7.8-5.5,15-10.7,21.1l-16.5-16.5C147.7,77.8,148.7,76.3,149.4,74.7z M183.1,121.1H66.9v-7.7h75.2l7.7-7.7h33.2V121.1z
		 M74.7,63.1c0-1.3,0.1-2.6,0.2-3.9h23.3c-0.2,1.3-0.3,2.6-0.3,3.9c0,14.9,12.2,27.1,27.1,27.1c1.3,0,2.6-0.1,3.9-0.3v15.8H98.3
		C83.5,96.4,74.7,80.5,74.7,63.1z M141.2,84.7l13.2,13.2h-4.5c-2.1,0-4,0.8-5.5,2.3l-5.5,5.5h-2.3V87.5
		C138.2,86.7,139.8,85.8,141.2,84.7z M125,82.4c-10.7,0-19.4-8.7-19.4-19.4s8.7-19.4,19.4-19.4s19.4,8.7,19.4,19.4
		S135.7,82.4,125,82.4L125,82.4z M108.8,41.4L92.3,24.9c6-5.1,13.2-8.9,21.1-10.7v24.5C111.8,39.4,110.2,40.3,108.8,41.4z
		 M103.3,46.9c-1.1,1.4-2,3-2.8,4.6H76.1c1.9-7.9,5.6-15.1,10.7-21.1L103.3,46.9z M85.5,105.6H66.9c-4.3,0-7.7,3.5-7.7,7.7v61.9H36
		V51.5h32.1c-0.8,3.8-1.2,7.6-1.2,11.6C66.9,79.6,73.7,94.8,85.5,105.6L85.5,105.6z M66.9,128.9h116.1v46.5H66.9V128.9z M183.1,97.9
		h-11.7c7.5-10,11.7-22.1,11.7-34.8c0-4-0.4-7.9-1.2-11.6H214v123.9h-23.2v-69.7C190.8,101.4,187.3,97.9,183.1,97.9z M156.8,223.2
		l25.7,7c3.6,1,6.4,3.7,7.7,7.1H59.9c1.2-3.4,4-6.1,7.7-7.1l25.7-7c5-1.4,8.6-6,8.6-11.2v-5.7h46.5v5.7
		C148.2,217.2,151.7,221.8,156.8,223.2L156.8,223.2z M237.3,186.9c0,6.4-5.2,11.6-11.6,11.6H24.4c-6.4,0-11.6-5.2-11.6-11.6V39.8
		c0-6.4,5.2-11.6,11.6-11.6h54.3c-3.5,4.7-6.3,9.9-8.3,15.5H36c-4.3,0-7.7,3.5-7.7,7.7v123.9c0,4.3,3.5,7.7,7.7,7.7H214
		c4.3,0,7.7-3.5,7.7-7.7V51.5c0-4.3-3.5-7.7-7.7-7.7h-34.4c-2-5.6-4.8-10.8-8.3-15.5h54.3c6.4,0,11.6,5.2,11.6,11.6V186.9z"/>
</g>
</svg>
