<?xml version="1.0" encoding="utf-8"?>
<!-- Generator: Adobe Illustrator 21.0.2, SVG Export Plug-In . SVG Version: 6.00 Build 0)  -->
<svg version="1.1" id="Capa_1" xmlns="http://www.w3.org/2000/svg" xmlns:xlink="http://www.w3.org/1999/xlink" x="0px" y="0px"
	 viewBox="0 0 250 250" style="enable-background:new 0 0 250 250;" xml:space="preserve">
<style type="text/css">
	.st0{fill:#FFFFFF;}
	.st1{fill:none;stroke:#FFFFFF;stroke-width:2.623;stroke-miterlimit:10;}
	.st2{fill:none;stroke:#FFFFFF;stroke-width:1.3115;stroke-miterlimit:10;}
	.st3{fill:none;}
	.st4{clip-path:url(#SVGID_2_);fill-rule:evenodd;clip-rule:evenodd;fill:#FFFFFF;}
</style>
<g>
	<path class="st0" d="M90.5,61.8c5.5,0,10.6,1.7,15.3,5.2c4.7,3.5,8.5,8.4,11.3,14.7c1.9,4.4,3.2,10.3,4,17.6h3.4l11.5-46.7h-4.5
		c-2.1,2.5-3.9,4.2-5.5,5c-1.6,0.8-3.3,1.3-5.3,1.3c-2.3,0-6.3-0.8-11.9-2.3c-9.6-2.6-17.4-4-23.3-4c-13,0-23.5,3.7-31.6,11.2
		C45.9,71.2,41.9,80,41.9,90.2c0,5.9,1.3,11.4,3.8,16.7c3.5,7,9.7,15,18.7,24c9,8.9,14.8,15.7,17.4,20.4c2.5,4.7,3.8,9.5,3.8,14.6
		c0,6-2.3,11.2-6.8,15.6c-4.5,4.4-10.1,6.7-16.8,6.7c-6.8,0-12.8-1.8-18.1-5.4c-5.3-3.6-9.3-8.7-12.2-15.1
		c-2.8-6.5-4.7-14.3-5.6-23.5h-3.9L10,196.5h4c2.7-2,5-3.4,6.8-4.1c1.8-0.7,3.9-1.1,6.2-1.1c2.9,0,8.8,0.9,17.6,2.6
		c8.8,1.7,16.2,2.6,22,2.6c9.5,0,18-1.7,25.4-5.1c7.5-3.4,13.2-8.2,17.1-14.5c3.9-6.2,5.9-13,5.9-20.4c0-6.6-1.4-12.7-4.2-18.3
		c-2.8-5.6-8.3-12.3-16.5-20.1c-10.2-9.7-16.7-17-19.4-21.9c-2.7-4.8-4.1-9.8-4.1-14.8c0-5.1,2-9.6,5.9-13.7
		C80.6,63.8,85.2,61.8,90.5,61.8z"/>
	<path class="st0" d="M131.4,197.4l36.2-46.8l36.5,46.8h4.9l-38.7-50l35.8-45.9h-4.9l-0.3,0.3c-5.8,7.4-11.5,14.7-17,21.6
		c-5.7,7.1-11.2,14.1-16.3,20.7l-33.3-42.7h-5.1l35.7,46.1l-38.3,49.8H131.4z"/>
	<circle class="st0" cx="227.2" cy="183.8" r="12.8"/>
</g>
</svg>
