<?xml version="1.0" encoding="utf-8"?>
<!-- Generator: Adobe Illustrator 21.0.2, SVG Export Plug-In . SVG Version: 6.00 Build 0)  -->
<svg version="1.1" id="Capa_1" xmlns="http://www.w3.org/2000/svg" xmlns:xlink="http://www.w3.org/1999/xlink" x="0px" y="0px"
	 viewBox="0 0 250 250" style="enable-background:new 0 0 250 250;" xml:space="preserve">
<style type="text/css">
	.st0{fill:none;stroke:#000000;stroke-width:2.623;stroke-miterlimit:10;}
	.st1{fill:none;stroke:#000000;stroke-width:1.3115;stroke-miterlimit:10;}
	.st2{fill:none;}
	.st3{clip-path:url(#SVGID_2_);fill-rule:evenodd;clip-rule:evenodd;}
</style>
<g>
	<g>
		<defs>
			<path id="SVGID_1_" d="M195.2,183.8c0,7.3-5.7,13.2-12.8,13.2H67.7c-7.1,0-12.8-5.9-12.8-13.2V66.2c0-7.3,5.7-13.2,12.8-13.2
				h114.7c7.1,0,12.8,5.9,12.8,13.2V183.8z"/>
		</defs>
		<clipPath id="SVGID_2_">
			<use xlink:href="#SVGID_1_"  style="overflow:visible;"/>
		</clipPath>
		<path class="st3" d="M54.8,184.9c0,0,5,0.3,10.1-0.3c5.1-0.6,12-1.4,19-5.1c7-3.7,11.8-9.4,13.1-11.3c1.3-1.9,5-7.7,6.1-11.9
			c1.1-4.2,2.5-10.8,3-16.1c0.5-5.3,1.5-20.4,1.8-23.5c0.3-3,1.2-14.3,4.1-21.6c2.9-7.3,6.6-13.7,12.3-18.8
			c5.7-5.1,11-8.2,15.8-10.6c4.8-2.4,13.3-5.8,18.7-7.3c5.4-1.5,14.3-3.3,19.6-4c5.2-0.7,9.3-1.1,10.8-1.1c1.5-0.1,6.1-0.5,6.1-0.5
			H54.8V184.9z"/>
		<path class="st3" d="M195.2,53.4c0,0-5,1.1-8.9,2.5c-3.9,1.5-9.5,3.6-13.1,6.3c-3.6,2.7-6.2,4.4-9.6,8.6
			c-3.5,4.2-5.7,10.2-5.7,10.2s-2.1,6.3-2.3,9.9c-0.1,3.6-1,9.1-1.1,17c-0.2,7.8-0.5,22.4-0.5,22.4s-0.9,15.7-1.3,18.7
			c-0.4,3-1.9,12.5-4,18.4c-2.1,5.9-4.3,9.8-6.3,12.8c-2.1,2.9-5,5.7-8.2,7.5c-3.2,1.8-6.3,3.2-11.6,4c-5.2,0.8-9.2,1.9-20.6,2.8
			c-11.4,0.9-26.7,1.6-26.7,1.6l-20.7,1c0,0-0.3,0-0.3,0.3c0,0.2,0,0.3,0.7,0.3c1,0,140.2,0,140.2,0V53.4z"/>
	</g>
</g>
</svg>
