<?xml version="1.0" encoding="utf-8"?>
<!-- Generator: Adobe Illustrator 21.0.2, SVG Export Plug-In . SVG Version: 6.00 Build 0)  -->
<svg version="1.1" id="Capa_1" xmlns="http://www.w3.org/2000/svg" xmlns:xlink="http://www.w3.org/1999/xlink" x="0px" y="0px"
	 viewBox="0 0 250 250" style="enable-background:new 0 0 250 250;" xml:space="preserve">
<style type="text/css">
	.st0{fill:none;stroke:#000000;stroke-width:2.623;stroke-miterlimit:10;}
	.st1{fill:none;stroke:#000000;stroke-width:1.3115;stroke-miterlimit:10;}
	.st2{fill:none;}
	.st3{clip-path:url(#SVGID_2_);fill-rule:evenodd;clip-rule:evenodd;}
</style>
<g>
	<g>
		<g>
			<path d="M202.2,3.4H48.5c-11.2,0-20.2,9.1-20.2,20.2v202.2c0,11.2,9.1,20.2,20.2,20.2h153.7c11.2,0,20.2-9.1,20.2-20.2V23.6
				C222.4,12.4,213.3,3.4,202.2,3.4z M84.9,11.4h80.9v8.1H84.9V11.4z M198.1,27.6v40.4H52.5V27.6H198.1z M214.3,225.8
				c0,6.7-5.4,12.1-12.1,12.1H48.5c-6.7,0-12.1-5.4-12.1-12.1V23.6c0-6.7,5.4-12.1,12.1-12.1h28.3v8.1H48.5c-2.2,0-4,1.8-4,4v48.5
				c0,2.2,1.8,4,4,4h153.7c2.2,0,4-1.8,4-4V23.6c0-2.2-1.8-4-4-4h-28.3v-8.1h28.3c6.7,0,12.1,5.4,12.1,12.1V225.8z"/>
		</g>
	</g>
	<g>
		<g>
			<path d="M125.3,84.2c-11.2,0-20.2,9.1-20.2,20.2c0,11.2,9.1,20.2,20.2,20.2c11.2,0,20.2-9.1,20.2-20.2S136.5,84.2,125.3,84.2z
				 M125.3,116.6c-6.7,0-12.1-5.4-12.1-12.1c0-6.7,5.4-12.1,12.1-12.1s12.1,5.4,12.1,12.1C137.5,111.2,132,116.6,125.3,116.6z"/>
		</g>
	</g>
	<g>
		<g>
			<path d="M177.9,84.2c-11.2,0-20.2,9.1-20.2,20.2c0,11.2,9.1,20.2,20.2,20.2c11.2,0,20.2-9.1,20.2-20.2S189.1,84.2,177.9,84.2z
				 M177.9,116.6c-6.7,0-12.1-5.4-12.1-12.1c0-6.7,5.4-12.1,12.1-12.1c6.7,0,12.1,5.4,12.1,12.1C190,111.2,184.6,116.6,177.9,116.6z
				"/>
		</g>
	</g>
	<g>
		<g>
			<path d="M72.7,84.2c-11.2,0-20.2,9.1-20.2,20.2c0,11.2,9.1,20.2,20.2,20.2c11.2,0,20.2-9.1,20.2-20.2S83.9,84.2,72.7,84.2z
				 M72.7,116.6c-6.7,0-12.1-5.4-12.1-12.1c0-6.7,5.4-12.1,12.1-12.1c6.7,0,12.1,5.4,12.1,12.1C84.9,111.2,79.5,116.6,72.7,116.6z"
				/>
		</g>
	</g>
	<g>
		<g>
			<path d="M125.3,132.8c-11.2,0-20.2,9.1-20.2,20.2c0,11.2,9.1,20.2,20.2,20.2c11.2,0,20.2-9.1,20.2-20.2
				C145.5,141.8,136.5,132.8,125.3,132.8z M125.3,165.1c-6.7,0-12.1-5.4-12.1-12.1c0-6.7,5.4-12.1,12.1-12.1s12.1,5.4,12.1,12.1
				C137.5,159.7,132,165.1,125.3,165.1z"/>
		</g>
	</g>
	<g>
		<g>
			<path d="M177.9,132.8c-11.2,0-20.2,9.1-20.2,20.2c0,11.2,9.1,20.2,20.2,20.2c11.2,0,20.2-9.1,20.2-20.2
				C198.1,141.8,189.1,132.8,177.9,132.8z M177.9,165.1c-6.7,0-12.1-5.4-12.1-12.1c0-6.7,5.4-12.1,12.1-12.1
				c6.7,0,12.1,5.4,12.1,12.1C190,159.7,184.6,165.1,177.9,165.1z"/>
		</g>
	</g>
	<g>
		<g>
			<path d="M72.7,132.8c-11.2,0-20.2,9.1-20.2,20.2c0,11.2,9.1,20.2,20.2,20.2c11.2,0,20.2-9.1,20.2-20.2
				C93,141.8,83.9,132.8,72.7,132.8z M72.7,165.1c-6.7,0-12.1-5.4-12.1-12.1c0-6.7,5.4-12.1,12.1-12.1c6.7,0,12.1,5.4,12.1,12.1
				C84.9,159.7,79.5,165.1,72.7,165.1z"/>
		</g>
	</g>
	<g>
		<g>
			<path d="M125.3,181.3c-11.2,0-20.2,9.1-20.2,20.2c0,11.2,9.1,20.2,20.2,20.2c11.2,0,20.2-9.1,20.2-20.2
				C145.5,190.3,136.5,181.3,125.3,181.3z M125.3,213.6c-6.7,0-12.1-5.4-12.1-12.1c0-6.7,5.4-12.1,12.1-12.1s12.1,5.4,12.1,12.1
				C137.5,208.2,132,213.6,125.3,213.6z"/>
		</g>
	</g>
	<g>
		<g>
			<path d="M72.7,181.3c-11.2,0-20.2,9.1-20.2,20.2c0,11.2,9.1,20.2,20.2,20.2c11.2,0,20.2-9.1,20.2-20.2
				C93,190.3,83.9,181.3,72.7,181.3z M72.7,213.6c-6.7,0-12.1-5.4-12.1-12.1c0-6.7,5.4-12.1,12.1-12.1c6.7,0,12.1,5.4,12.1,12.1
				C84.9,208.2,79.5,213.6,72.7,213.6z"/>
		</g>
	</g>
	<g>
		<g>
			<path d="M194.1,181.3h-32.4c-2.2,0-4,1.8-4,4v40.4c0,2.2,1.8,4,4,4h32.4c2.2,0,4-1.8,4-4v-40.4
				C198.1,183.1,196.3,181.3,194.1,181.3z M190,221.7h-24.3v-32.4H190V221.7z"/>
		</g>
	</g>
	<g>
		<g>
			<rect x="165.8" y="51.9" width="8.1" height="8.1"/>
		</g>
	</g>
	<g>
		<g>
			<rect x="181.9" y="51.9" width="8.1" height="8.1"/>
		</g>
	</g>
	<g>
		<g>
			<polygon points="76.8,43.8 76.8,35.7 68.7,35.7 68.7,43.8 60.6,43.8 60.6,51.9 68.7,51.9 68.7,60 76.8,60 76.8,51.9 84.9,51.9 
				84.9,43.8 			"/>
		</g>
	</g>
	<g>
		<g>
			<path d="M181.9,209.6h-4c-2.2,0-4,1.8-4,4s1.8,4,4,4h4c2.2,0,4-1.8,4-4S184.2,209.6,181.9,209.6z"/>
		</g>
	</g>
</g>
</svg>
