<?xml version="1.0" encoding="utf-8"?>
<!-- Generator: Adobe Illustrator 21.0.2, SVG Export Plug-In . SVG Version: 6.00 Build 0)  -->
<svg version="1.1" id="Capa_1" xmlns="http://www.w3.org/2000/svg" xmlns:xlink="http://www.w3.org/1999/xlink" x="0px" y="0px"
	 viewBox="0 0 250 250" style="enable-background:new 0 0 250 250;" xml:space="preserve">
<style type="text/css">
	.st0{fill:none;stroke:#000000;stroke-width:2.623;stroke-miterlimit:10;}
	.st1{fill:none;stroke:#000000;stroke-width:1.3115;stroke-miterlimit:10;}
	.st2{fill:none;}
	.st3{clip-path:url(#SVGID_2_);fill-rule:evenodd;clip-rule:evenodd;}
</style>
<g>
	<path d="M46.2,120.8c-0.7-2.6-3.4-4.2-6-3.5c-2.6,0.7-4.2,3.4-3.5,6l6.3,23.5c0.7,2.6,3.4,4.2,6,3.5c2.6-0.7,4.2-3.4,3.5-6
		L46.2,120.8z"/>
	<g>
		<path d="M173.2,92.1c0.3-0.3,0.3-0.7,0-1l-3.5-3.5l0-1.1l8.9-6.8c0.2-0.2,0.3-0.5,0.2-0.8c-0.1-0.3-0.3-0.5-0.6-0.5l-13.7,0
			c-0.4,0-0.7,0.3-0.7,0.7v3.1l-3.5,0l-0.7,0l0-3.1c0-0.4-0.3-0.7-0.7-0.7l-13.7,0c-0.3,0-0.5,0.2-0.6,0.5c-0.1,0.3,0,0.6,0.2,0.8
			l8.9,6.7l0,4.9l-3.5,3.5c-0.3,0.3-0.3,0.7,0,1l3.5,3.5l0,2.9l-3.5,3.5c-0.3,0.3-0.3,0.7,0,1l3.5,3.5l0,2.9l-3.5,3.5
			c-0.1,0.1-0.2,0.3-0.2,0.5s0.1,0.4,0.2,0.5l3.5,3.5v2.9l-3.5,3.5c-0.3,0.3-0.3,0.7,0,1l3.5,3.5v2.9l-3.5,3.5c-0.3,0.3-0.3,0.7,0,1
			l3.6,3.6c0,0,0,0.1,0.1,0.1l7.3,6.7c0.1,0.1,0.3,0.2,0.5,0.2c0.2,0,0.3-0.1,0.5-0.2l7.3-6.7c0.1-0.1,0.2-0.3,0.2-0.5v-14.3
			l3.5-3.5c0.3-0.3,0.3-0.7,0-1l-3.5-3.5v-2.9l3.5-3.5c0.3-0.3,0.3-0.7,0-1l-3.5-3.5v-2.9l3.5-3.5c0.3-0.3,0.3-0.7,0-1l-3.5-3.5
			v-2.9L173.2,92.1z M168.5,99.3l3.2,3.2l-3.2,3.2c-0.1,0.1-0.2,0.3-0.2,0.5v3.5c0,0.2,0.1,0.3,0.2,0.5l3.2,3.2l-3.2,3.2
			c-0.1,0.1-0.2,0.3-0.2,0.5v3.5c0,0.2,0.1,0.3,0.2,0.5l3.2,3.2l-3.2,3.2c-0.1,0.1-0.2,0.3-0.2,0.5v14.3l-6.7,6.1l-6.8-6.3
			c0,0,0,0,0,0l-3.2-3.2l3.2-3.2c0.1-0.1,0.2-0.3,0.2-0.5v-3.5c0-0.2-0.1-0.3-0.2-0.5l-3.2-3.2l3.2-3.2c0.1-0.1,0.2-0.3,0.2-0.5
			v-3.5c0-0.2-0.1-0.4-0.2-0.5l-3.2-3.2l3.2-3.2c0.1-0.1,0.2-0.3,0.2-0.5v-3.5c0-0.2-0.1-0.3-0.2-0.5l-3.2-3.2l3.2-3.2
			c0.1-0.1,0.2-0.3,0.2-0.5v-3.5c0-0.2-0.1-0.4-0.2-0.5l-3.2-3.2l3.2-3.2c0.1-0.1,0.2-0.3,0.2-0.5v-5.5c0-0.2-0.1-0.4-0.3-0.5
			l-7.5-5.7h11V83c0,0.4,0.3,0.7,0.7,0.7h5.5c0.4,0,0.7-0.3,0.7-0.7v-3.1h11l-7.4,5.6l-9.1,0.7l8.6,0.6l0,1.1c0,0.2,0.1,0.4,0.2,0.5
			l3.2,3.2l-3.2,3.2c-0.1,0.1-0.2,0.3-0.2,0.5v3.5C168.3,99,168.4,99.2,168.5,99.3z"/>
		<path d="M169,89.9L169,89.9l-11.1,11c0-1.4-0.1-2.8-0.1-4c0-1.1-0.1-2.1-0.1-3l2-2l-1.8-1.8l-0.3,0.3c-0.1-1-0.1-1.7-0.1-1.7
			s0,0.7-0.1,1.9l-4.8,4.8l1.8,1.8l0,0.1l2.8-2.8c0,0.7-0.1,1.5-0.1,2.4c0,1.5-0.1,3.2-0.1,5l-4.4,4.4l1.8,1.8l0,0.1l2.5-2.5
			c0,2.3-0.1,4.8-0.1,7.2l-4.2,4.2l1.8,1.8l0,0l2.4-2.4c0,2.4,0,4.8,0.1,7.1l-4.3,4.3l1.8,1.8l0,0l2.5-2.5c0,1.9,0.1,3.7,0.1,5.2
			c0,0.6,0,1.2,0.1,1.7l-4.6,4.6l1.8,1.8l0,0.1l2.9-2.9c0,0.2,0,0.4,0,0.6c0.1,1.4,0.1,2.2,0.1,2.2s0-0.8,0.1-2.2c0-0.3,0-0.6,0-1
			l13.2-13.2l-1.8-1.8l-0.1-0.1l-11.2,11.2c0-0.4,0-0.7,0-1.1c0-1.9,0.1-4,0.2-6.3l12.8-12.8l-1.8-1.8l-0.1-0.1L158,122.4
			c0-2.4,0-4.8,0.1-7.2l12.7-12.7l-1.8-1.8l-0.1-0.1l-10.9,10.9c0-2.2,0-4.3-0.1-6.4c0-0.2,0-0.5,0-0.7l12.8-12.8L169,89.9z"/>
		<path d="M206.9,102.3c-0.4,0-0.7,0.3-0.7,0.7v4.9l-2.1,2.1h-4.9c-0.4,0-0.7,0.3-0.7,0.7v4.9l-2.1,2.1h-4.9c-0.2,0-0.3,0.1-0.5,0.2
			c-0.1,0.1-0.2,0.3-0.2,0.5v4.9l-2.1,2.1h-4.9c-0.4,0-0.7,0.3-0.7,0.7l0,4.9l-2.1,2.1h-4.9c-0.4,0-0.7,0.3-0.7,0.7v5.2
			c0,0,0,0.1,0,0.1l0.4,10c0,0.2,0.1,0.3,0.2,0.4c0.1,0.1,0.3,0.2,0.5,0.2l9.9,0.4c0.2,0,0.4-0.1,0.5-0.2l10.1-10.1h4.9
			c0.4,0,0.7-0.3,0.7-0.7V134l2.1-2.1h4.9c0.4,0,0.7-0.3,0.7-0.7v-4.9l2.1-2.1h4.9c0.4,0,0.7-0.3,0.7-0.7l0-4.9l2.1-2.1h4.9
			c0.4,0,0.7-0.3,0.7-0.7V111l0.8-0.8l11.1,1.5c0.3,0,0.6-0.1,0.7-0.4c0.1-0.3,0.1-0.6-0.1-0.8l-9.7-9.7c-0.3-0.3-0.7-0.3-1,0
			l-2.2,2.2l-2.4-2.4l-0.5-0.5l2.2-2.2c0.3-0.3,0.3-0.7,0-1l-9.7-9.7c-0.2-0.2-0.5-0.3-0.8-0.1c-0.3,0.1-0.4,0.4-0.4,0.7l1.5,11
			l-3.4,3.5L206.9,102.3z M212.6,103.4l3.9-3.9c0.1-0.1,0.2-0.4,0.2-0.6l-1.3-9.4l7.8,7.8l-2.2,2.2c-0.3,0.3-0.3,0.7,0,1l3.9,3.9
			c0.3,0.3,0.7,0.3,1,0l2.2-2.2l7.8,7.8l-9.2-1.3l-6.9-5.9l5.7,6.6l-0.8,0.8c-0.1,0.1-0.2,0.3-0.2,0.5l0,4.5H220
			c-0.2,0-0.3,0.1-0.5,0.2l-2.5,2.5c-0.1,0.1-0.2,0.3-0.2,0.5v4.5l-4.5,0c-0.2,0-0.4,0.1-0.5,0.2l-2.5,2.5c-0.1,0.1-0.2,0.3-0.2,0.5
			l0,4.5h-4.5c-0.2,0-0.4,0.1-0.5,0.2l-2.5,2.5c-0.1,0.1-0.2,0.3-0.2,0.5l0,4.5h-4.5c-0.2,0-0.4,0.1-0.5,0.2l-10.1,10.1l-9-0.4
			l-0.4-9.3c0,0,0,0,0,0v-4.5h4.5c0.2,0,0.4-0.1,0.5-0.2l2.5-2.5c0.1-0.1,0.2-0.3,0.2-0.5v-4.5h4.5c0.2,0,0.3-0.1,0.5-0.2l2.5-2.5
			c0.1-0.1,0.2-0.3,0.2-0.5V119h4.5c0.2,0,0.4-0.1,0.5-0.2l2.5-2.5c0.1-0.1,0.2-0.3,0.2-0.5v-4.5h4.5c0.2,0,0.3-0.1,0.5-0.2l2.5-2.5
			c0.1-0.1,0.2-0.3,0.2-0.5v-4.5l4.5,0C212.3,103.6,212.5,103.5,212.6,103.4z"/>
		<path d="M212.2,106.9c-0.6,0.5-1.1,1-1.8,1.6c-1.1,1.1-2.4,2.2-3.7,3.4h-6.2v2.5v0.1h3.5c-1.7,1.6-3.4,3.3-5.2,5.1h-6v2.5v0.1h3.4
			c-1.7,1.7-3.4,3.4-5,5.1h-6.1l0,2.5v0.1h3.6c-1.3,1.4-2.5,2.7-3.6,3.8c-0.4,0.4-0.8,0.9-1.2,1.3h-6.5v2.5v0.1h4.1
			c-0.1,0.2-0.3,0.3-0.4,0.5c-0.9,1.1-1.5,1.7-1.5,1.7s0.6-0.5,1.7-1.5c0.2-0.2,0.5-0.4,0.7-0.6h18.6V135V135l-15.8,0
			c0.3-0.2,0.5-0.5,0.8-0.7c1.4-1.3,2.9-2.8,4.6-4.3h18.1l0-2.5v-0.1h-15.4c1.7-1.6,3.4-3.3,5.2-5.1h17.9v-2.5l0-0.1l-15.4,0
			c1.5-1.6,3-3.1,4.5-4.6c0.2-0.2,0.3-0.3,0.5-0.5h18.1l0-2.5V112h-15.6c1-1,1.9-2,2.7-2.9c0.7-0.8,1.4-1.5,2-2.2h2.8v-2.6l-0.5,0
			c0.7-0.8,1.1-1.2,1.1-1.2s-0.5,0.5-1.4,1.2l-6.8,0l0,2.5l0,0.1H212.2z"/>
		<path d="M59.7,107.3c-0.7-2.6-3.4-4.2-6-3.5c-2.6,0.7-4.2,3.4-3.5,6l6.3,23.5c0.7,2.6,3.4,4.2,6,3.5c2.6-0.7,4.2-3.4,3.5-6
			L59.7,107.3z"/>
		<path d="M147.7,170.4c-2-2-5.3-2-7.3,0l-0.5,0.5c-4.3,2.4-9.8,4.6-11.2,4.2c-6.7-1.8-15.7-11.7-25.9-28.1l2.1-2.2
			c3.4-3.4,4.2-8.8,1.8-12.1l-8.2-11.4l22.1-22c3.5-3.5,4.9-8.4,4.4-13l9.6-9.6l-0.1-0.1c6.5-7.5,7.4-18.3,2.6-26.7l31.4-31.4
			l-0.9-7.7l-7.7-1l-31.3,31.4c-3.5-2-7.4-3.1-11.5-3.1c-5.6,0-11,2-15.2,5.7l-0.1-0.1l-9.5,9.5c-4.7-0.6-9.5,0.8-13.1,4.4
			l-62.9,62.9c-6.1,6.1-6.1,16,0,22l19.5,19.5c6.1,6.1,16,6.1,22,0l2.1-2.1c0.2-0.2,0.4-0.2,0.5-0.2c0.3,0,0.6,0.3,0.8,0.7
			l33.7,55.4l-0.3,0.3l22.2,22.2c1,1,2.3,1.5,3.6,1.5c1.4,0,2.7-0.5,3.7-1.5l-1.2-1.2l1.2,1.2l42.2-42.2c1-1,1.5-2.3,1.5-3.6
			c0-1.4-0.5-2.7-1.5-3.6L147.7,170.4z M99.5,127.7c1.3,1.4,2.9,3.3,4.3,5.4c0.4,0.6,0.7,0.9,1.1,1.6c0.3,0.4,0.5,1.4,0.5,2
			c0.1,0.7-0.1,1.3-0.2,1.9c-0.2,0.5-0.3,1.1-0.6,1.5c-0.4,0.9-1,1.5-1.4,1.9c-0.4,0.4-0.7,0.6-0.7,0.6s0.2-0.3,0.4-0.8
			c0.3-0.5,0.6-1.2,0.8-2c0.2-0.8,0.4-1.9,0.2-2.9c-0.1-0.5-0.1-0.8-0.5-1.4c-0.2-0.4-0.7-1-1-1.4c-1.5-2-2.8-4.2-3.7-5.8
			c-0.9-1.6-1.4-2.8-1.4-2.8S98.2,126.3,99.5,127.7z M161,13.5l3.5,0.4l0.4,3.5l-3.6,3.6l-1.7-6.2L161,13.5z M157,17.5l1.7,6.2
			l-2.3,2.2l-1.7-6.2L157,17.5z M152.1,22.4l1.7,6.2l-2.3,2.2l-1.7-6.2L152.1,22.4z M147.2,27.3l1.7,6.2l-2.2,2.2l-1.7-6.2
			L147.2,27.3z M142.3,32.2l1.7,6.2l-2.2,2.2l-1.7-6.2L142.3,32.2z M137.5,37l1.7,6.2l-4,4c-0.6-0.7-1.2-1.4-1.8-2.1
			c-0.7-0.7-1.4-1.3-2.1-1.8L137.5,37z M101.7,48.7l14,14l14,14l-5.8,5.8c0,0,0,0,0,0c-0.4-0.9-0.8-1.8-1.4-2.6
			c-0.6-0.9-1.3-1.8-2.1-2.6L101,57.8c-0.7-0.7-1.5-1.4-2.4-2c-0.7-0.5-1.5-0.8-2.2-1.2c-0.2-0.1-0.3-0.2-0.4-0.2L101.7,48.7z
			 M64,158.9c-0.8-1.3-2-2.1-3.3-2.3c-1.2-0.1-2.4,0.3-3.3,1.2l-2.1,2.1c-4.8,4.8-12.5,4.8-17.3,0l-19.5-19.5
			c-4.8-4.8-4.8-12.5,0-17.3l62.9-62.9c3-3,7.1-4.1,10.9-3.4l0.1,0c0.7,0.1,1.3,0.3,2,0.6c0.2,0.1,0.4,0.2,0.6,0.3
			c0.5,0.2,0.9,0.5,1.4,0.7c0.2,0.1,0.4,0.2,0.6,0.4c0.6,0.4,1.2,0.9,1.7,1.4l19.5,19.5c0.5,0.5,1,1.1,1.4,1.7
			c0.1,0.2,0.2,0.4,0.3,0.5c0.3,0.5,0.5,0.9,0.7,1.4c0.1,0.2,0.2,0.4,0.2,0.6c0.3,0.7,0.5,1.3,0.6,2c0,0,0,0,0,0.1
			c0.7,3.8-0.4,8-3.3,11l-23.3,23.3c-3.9,3.9-5,11-2.4,15.8c9.6,17.6,23.5,39.2,35.3,42.4c1.3,0.4,3.3,0,5.3-0.7l-35.9,35.9
			L64,158.9z M141.9,214.2L131.6,225l-5.2,5.4l-2.6,2.7l-1.3,1.4l-0.6,0.7l-0.3,0.3l-0.2,0.2l-0.1,0.1l0,0c-0.2,0.1,0.4-0.2-0.4,0.3
			l0,0l-0.1,0l-0.7,0.3l-0.6-0.6l-19-18.3l2.4-2.4l17.5,18.2l0.5-0.5l1.3-1.3l2.7-2.6l5.4-5.2l10.8-10.4l21.6-20.8L141.9,214.2z"/>
		<path d="M117,177.7c-1.5-1.4-3.3-3.1-5.1-5.3c-1.9-2.1-3.8-4.7-5.9-7.5c-2-2.9-4.2-6-6.3-9.4c-2-3.5-4.3-7-6.4-10.9
			c-1.1-1.9-2.2-3.9-3.3-5.9c-1.1-1.9-1.7-3.8-2.2-5.9c-0.6-4.1,0.4-8.8,2.6-12.2c0.4-0.9,1.4-1.8,2.1-2.7l2.4-2.4
			c1.7-1.7,3.3-3.3,4.9-5c3.2-3.3,6.4-6.6,9.5-9.7c1.5-1.6,3-3.1,4.5-4.7c0.7-0.8,1.4-1.4,2.2-2.4c0.8-0.9,1.3-2.1,1.5-3.2
			c0.5-2.3,0.1-4.6-1.3-6.6l-0.9-1.1l-1.1-1c-0.7-0.6-1.3-1.3-2-1.9c-5.1-4.9-9.5-8.8-12.5-11.6c-3.1-2.8-4.8-4.4-4.8-4.4
			s1.6,1.8,4.4,4.8c2.8,3,6.8,7.4,11.6,12.5c0.6,0.6,1.2,1.3,1.9,2l0.9,0.9l0.9,1.1c0.7,1.2,1.1,3.1,0.6,4.7
			c-0.4,1.7-1.7,2.8-3.3,4.3c-1.5,1.5-3.1,3-4.7,4.5c-3.2,3.1-6.4,6.3-9.7,9.5c-1.6,1.6-3.3,3.3-5,4.9l-2.6,2.6
			c-0.7,1-1.6,1.7-2.2,2.8c-2.9,4.5-3.8,9.7-3.1,14.7c0.3,1.2,0.5,2.5,1,3.6c0.5,1.1,1,2.4,1.6,3.3c1.2,2,2.3,3.9,3.4,5.8
			c2.1,3.8,4.7,7.4,6.9,10.8c2.3,3.4,4.7,6.4,6.8,9.2c2.3,2.7,4.4,5.2,6.5,7.2c2,2.1,4,3.6,5.6,5c1.7,1.2,3,2.1,4.1,2.6
			c1,0.5,1.5,0.8,1.5,0.8s-0.5-0.3-1.4-0.9C119.7,180.1,118.5,179,117,177.7z"/>
	</g>
</g>
</svg>
